# xmcd
#
# Track frame offsets:
#	150
#	15284
#	31519
#	40991
#	53817
#	75033
#	92177
#	104182
#	110525
#	120657
#	129645
#	135659
#	147214
#	164352
#	178822
#	195093
#	211140
#	222701
#
# Disc length: 3199 seconds
#
# Revision: 0
# Processed by: cddbd v1.5.2PL0 Copyright (c) Steve Scherf et al.
# Submitted via: EasyCDDAExtractor 10.5.1.1
#
DISCID=f30c7d12
DTITLE=Johnny Cash - The Great Lost Performance (The Paramount Theatre, Asbury
DTITLE=Park, 1990)
DYEAR=2007
DGENRE=Country
TTITLE0=Ring Of Fire
TTITLE1=Life's Railway To Heaven
TTITLE2=A Wonderful Time Up There
TTITLE3=Folsom Prison Blues
TTITLE4=Sunday Morning Coming Down
TTITLE5=What Is Man (With Lucy Clark)
TTITLE6=Forty Shades Of Green
TTITLE7=Come Along And Ride This Train
TTITLE8=Five Feet High And Rising
TTITLE9=Pickin' Time
TTITLE10=A Beautiful Life
TTITLE11=Hey Porter
TTITLE12=Ragged Old Flag
TTITLE13=Tennessee Flat Top Box
TTITLE14=Ghost Riders In The Sky
TTITLE15=Jackson (With June Carter Cash)
TTITLE16=The Wreck Of The Old '97 (With
TTITLE17=I Walk The Line
EXTD=
EXTT0=
EXTT1=
EXTT2=
EXTT3=
EXTT4=
EXTT5=
EXTT6=
EXTT7=
EXTT8=
EXTT9=
EXTT10=
EXTT11=
EXTT12=
EXTT13=
EXTT14=
EXTT15=
EXTT16=
EXTT17=
PLAYORDER=
